<svg width="191" height="23" viewBox="0 0 191 23" fill="none" xmlns="http://www.w3.org/2000/svg">
<path d="M8.04688 6.07812L4.55469 9.54688L8.04688 13.0156L6.00781 15.0781L0.453125 9.54688L6.00781 4.03906L8.04688 6.07812ZM25.8594 1.74219L18.4297 17.7031L15.8281 16.5078L23.2812 0.523438L25.8594 1.74219ZM40.6484 9.33594L35.0938 14.8438L33.0547 12.8047L36.5234 9.33594L33.0547 5.84375L35.0938 3.80469L40.6484 9.33594ZM64.3672 0.6875C65.5781 0.6875 66.8516 0.730469 68.1875 0.816406C69.5234 0.902344 70.9297 1.07031 72.4062 1.32031V4.29688C71.8828 4.14844 71.2852 4.00781 70.6133 3.875C70.0352 3.76562 69.3398 3.66016 68.5273 3.55859C67.7148 3.45703 66.7969 3.39062 65.7734 3.35938V18.5234H62.9844V3.35938C61.9609 3.39062 61.043 3.45703 60.2305 3.55859C59.418 3.66016 58.7227 3.76562 58.1445 3.875C57.4727 4.00781 56.875 4.14844 56.3516 4.29688V1.32031C57.8125 1.07031 59.2188 0.902344 60.5703 0.816406C61.9219 0.730469 63.1875 0.6875 64.3672 0.6875ZM82.7188 4.92969C83.375 4.92969 84.0273 4.96094 84.6758 5.02344C85.332 5.08594 85.9609 5.1875 86.5625 5.32812C87.1641 5.46875 87.7266 5.64453 88.25 5.85547C88.7734 6.06641 89.2266 6.32031 89.6094 6.61719C90 6.91406 90.3047 7.25781 90.5234 7.64844C90.7422 8.03125 90.8516 8.46094 90.8516 8.9375V15.0078C90.8516 15.4297 90.7422 15.8164 90.5234 16.168C90.3047 16.5195 90 16.8359 89.6094 17.1172C89.2266 17.3906 88.7734 17.6289 88.25 17.832C87.7266 18.0352 87.1641 18.2031 86.5625 18.3359C85.9609 18.4688 85.332 18.5664 84.6758 18.6289C84.0195 18.6992 83.3672 18.7344 82.7188 18.7344C82.0703 18.7344 81.418 18.6992 80.7617 18.6289C80.1133 18.5664 79.4883 18.4688 78.8867 18.3359C78.2852 18.2031 77.7227 18.0352 77.1992 17.832C76.6836 17.6289 76.2305 17.3906 75.8398 17.1172C75.457 16.8359 75.1562 16.5234 74.9375 16.1797C74.7188 15.8281 74.6094 15.4375 74.6094 15.0078V8.9375C74.6094 8.46094 74.7188 8.03125 74.9375 7.64844C75.1562 7.25781 75.457 6.91406 75.8398 6.61719C76.2305 6.32031 76.6836 6.06641 77.1992 5.85547C77.7227 5.64453 78.2852 5.46875 78.8867 5.32812C79.4883 5.1875 80.1133 5.08594 80.7617 5.02344C81.418 4.96094 82.0703 4.92969 82.7188 4.92969ZM77.5859 14.2578C77.5859 14.6172 77.7344 14.9297 78.0312 15.1953C78.3359 15.4531 78.7305 15.6719 79.2148 15.8516C79.6992 16.0234 80.2461 16.1523 80.8555 16.2383C81.4727 16.3242 82.0938 16.3672 82.7188 16.3672C83.375 16.3672 84.0078 16.3203 84.6172 16.2266C85.2344 16.1328 85.7812 16 86.2578 15.8281C86.7344 15.6484 87.1133 15.4297 87.3945 15.1719C87.6836 14.9062 87.8281 14.6016 87.8281 14.2578V9.38281C87.8281 9.04688 87.6836 8.74609 87.3945 8.48047C87.1133 8.20703 86.7344 7.98047 86.2578 7.80078C85.7812 7.61328 85.2344 7.47266 84.6172 7.37891C84.0078 7.27734 83.375 7.22656 82.7188 7.22656C82.0938 7.22656 81.4727 7.27344 80.8555 7.36719C80.2461 7.45312 79.6992 7.58594 79.2148 7.76562C78.7305 7.94531 78.3359 8.17188 78.0312 8.44531C77.7344 8.71094 77.5859 9.02344 77.5859 9.38281V14.2578ZM101 5.14062C101.664 5.14062 102.34 5.16797 103.027 5.22266C103.715 5.26953 104.375 5.33594 105.008 5.42188C105.648 5.5 106.246 5.59375 106.801 5.70312C107.363 5.8125 107.852 5.92969 108.266 6.05469H108.453V19.0859C108.453 19.6406 108.336 20.1562 108.102 20.6328C107.867 21.1094 107.527 21.5195 107.082 21.8633C106.637 22.2148 106.09 22.4883 105.441 22.6836C104.793 22.8789 104.055 22.9766 103.227 22.9766V20.9375C103.539 20.9375 103.828 20.9062 104.094 20.8438C104.359 20.7812 104.59 20.6836 104.785 20.5508C104.988 20.4258 105.145 20.2656 105.254 20.0703C105.371 19.8828 105.43 19.6641 105.43 19.4141V17.6094C104.719 17.8828 103.98 18.1016 103.215 18.2656C102.457 18.4219 101.719 18.5 101 18.5C99.7969 18.5 98.7227 18.418 97.7773 18.2539C96.832 18.082 96.0312 17.8203 95.375 17.4688C94.7188 17.1172 94.2188 16.6719 93.875 16.1328C93.5312 15.5938 93.3594 14.9531 93.3594 14.2109V9.42969C93.3594 8.6875 93.5312 8.04688 93.875 7.50781C94.2188 6.96875 94.7188 6.52344 95.375 6.17188C96.0312 5.82031 96.832 5.5625 97.7773 5.39844C98.7227 5.22656 99.7969 5.14062 101 5.14062ZM101.844 16.1562C102.273 16.1562 102.668 16.1289 103.027 16.0742C103.387 16.0117 103.711 15.9336 104 15.8398C104.297 15.7461 104.562 15.6484 104.797 15.5469C105.039 15.4375 105.25 15.3359 105.43 15.2422V7.95312C105.219 7.875 104.973 7.79688 104.691 7.71875C104.418 7.64062 104.121 7.57422 103.801 7.51953C103.488 7.45703 103.164 7.41016 102.828 7.37891C102.492 7.33984 102.164 7.32031 101.844 7.32031C101.117 7.32031 100.426 7.33984 99.7695 7.37891C99.1133 7.41797 98.5391 7.52344 98.0469 7.69531C97.5547 7.86719 97.1602 8.13281 96.8633 8.49219C96.5742 8.84375 96.4297 9.33594 96.4297 9.96875V13.4141C96.4297 13.8281 96.4961 14.1836 96.6289 14.4805C96.7617 14.7773 96.9453 15.0273 97.1797 15.2305C97.4219 15.4336 97.7109 15.5977 98.0469 15.7227C98.3828 15.8398 98.75 15.9336 99.1484 16.0039C99.5469 16.0664 99.9727 16.1094 100.426 16.1328C100.887 16.1484 101.359 16.1562 101.844 16.1562ZM120.125 5.14062C120.523 5.14062 121.004 5.16016 121.566 5.19922C122.129 5.23828 122.711 5.30859 123.312 5.41016C123.922 5.50391 124.523 5.64062 125.117 5.82031C125.711 5.99219 126.242 6.21484 126.711 6.48828C127.188 6.76172 127.57 7.09375 127.859 7.48438C128.156 7.86719 128.305 8.32031 128.305 8.84375V12.8047H114.875V15.8047C115.82 15.9375 116.73 16.0312 117.605 16.0859C118.48 16.1328 119.32 16.1562 120.125 16.1562C121.352 16.1562 122.461 16.1094 123.453 16.0156C124.453 15.9219 125.316 15.8164 126.043 15.6992C126.879 15.5664 127.633 15.4141 128.305 15.2422V17.8438C126.82 18.0781 125.387 18.2461 124.004 18.3477C122.629 18.4492 121.336 18.5 120.125 18.5C118.906 18.5 117.801 18.4688 116.809 18.4062C115.816 18.3359 114.965 18.2578 114.254 18.1719C113.426 18.0781 112.68 17.9688 112.016 17.8438V8.84375C112.016 8.32031 112.145 7.86719 112.402 7.48438C112.66 7.09375 113.004 6.76172 113.434 6.48828C113.863 6.21484 114.355 5.99219 114.91 5.82031C115.473 5.64062 116.055 5.50391 116.656 5.41016C117.258 5.30859 117.855 5.23828 118.449 5.19922C119.051 5.16016 119.609 5.14062 120.125 5.14062ZM114.875 10.9297H125.398V9.57031C125.398 9.25 125.32 8.97656 125.164 8.75C125.008 8.51562 124.797 8.32031 124.531 8.16406C124.273 8.00781 123.969 7.88281 123.617 7.78906C123.273 7.6875 122.914 7.61328 122.539 7.56641C122.164 7.51172 121.785 7.47656 121.402 7.46094C121.027 7.44531 120.672 7.4375 120.336 7.4375C119.984 7.4375 119.605 7.44531 119.199 7.46094C118.801 7.47656 118.398 7.51172 117.992 7.56641C117.586 7.62109 117.195 7.69922 116.82 7.80078C116.445 7.89453 116.113 8.02344 115.824 8.1875C115.535 8.34375 115.305 8.53906 115.133 8.77344C114.961 9 114.875 9.27344 114.875 9.59375V10.9297ZM135.734 4.97656H138.711V6.94531H135.734V18.5H132.945V6.94531H130.742V4.97656H132.945V0.898438H135.734V4.97656ZM149.773 5.14062C150.977 5.14062 152.008 5.24219 152.867 5.44531C153.727 5.64062 154.43 5.9375 154.977 6.33594C155.531 6.72656 155.934 7.21484 156.184 7.80078C156.441 8.38672 156.57 9.07031 156.57 9.85156V18.5H153.5V10.5781C153.5 10.1406 153.441 9.76562 153.324 9.45312C153.207 9.13281 153.047 8.86328 152.844 8.64453C152.648 8.41797 152.418 8.23438 152.152 8.09375C151.887 7.95312 151.609 7.84766 151.32 7.77734C151.039 7.69922 150.75 7.64844 150.453 7.625C150.156 7.59375 149.875 7.57812 149.609 7.57812C149.109 7.57812 148.633 7.61328 148.18 7.68359C147.727 7.75391 147.297 7.85156 146.891 7.97656C146.484 8.09375 146.102 8.23438 145.742 8.39844C145.383 8.5625 145.047 8.73438 144.734 8.91406V18.5H141.664V0.664062H144.734V6.6875C145.094 6.46875 145.461 6.26562 145.836 6.07812C146.211 5.89062 146.602 5.72656 147.008 5.58594C147.422 5.44531 147.855 5.33594 148.309 5.25781C148.77 5.17969 149.258 5.14062 149.773 5.14062ZM168.289 5.14062C168.688 5.14062 169.168 5.16016 169.73 5.19922C170.293 5.23828 170.875 5.30859 171.477 5.41016C172.086 5.50391 172.688 5.64062 173.281 5.82031C173.875 5.99219 174.406 6.21484 174.875 6.48828C175.352 6.76172 175.734 7.09375 176.023 7.48438C176.32 7.86719 176.469 8.32031 176.469 8.84375V12.8047H163.039V15.8047C163.984 15.9375 164.895 16.0312 165.77 16.0859C166.645 16.1328 167.484 16.1562 168.289 16.1562C169.516 16.1562 170.625 16.1094 171.617 16.0156C172.617 15.9219 173.48 15.8164 174.207 15.6992C175.043 15.5664 175.797 15.4141 176.469 15.2422V17.8438C174.984 18.0781 173.551 18.2461 172.168 18.3477C170.793 18.4492 169.5 18.5 168.289 18.5C167.07 18.5 165.965 18.4688 164.973 18.4062C163.98 18.3359 163.129 18.2578 162.418 18.1719C161.59 18.0781 160.844 17.9688 160.18 17.8438V8.84375C160.18 8.32031 160.309 7.86719 160.566 7.48438C160.824 7.09375 161.168 6.76172 161.598 6.48828C162.027 6.21484 162.52 5.99219 163.074 5.82031C163.637 5.64062 164.219 5.50391 164.82 5.41016C165.422 5.30859 166.02 5.23828 166.613 5.19922C167.215 5.16016 167.773 5.14062 168.289 5.14062ZM163.039 10.9297H173.562V9.57031C173.562 9.25 173.484 8.97656 173.328 8.75C173.172 8.51562 172.961 8.32031 172.695 8.16406C172.438 8.00781 172.133 7.88281 171.781 7.78906C171.438 7.6875 171.078 7.61328 170.703 7.56641C170.328 7.51172 169.949 7.47656 169.566 7.46094C169.191 7.44531 168.836 7.4375 168.5 7.4375C168.148 7.4375 167.77 7.44531 167.363 7.46094C166.965 7.47656 166.562 7.51172 166.156 7.56641C165.75 7.62109 165.359 7.69922 164.984 7.80078C164.609 7.89453 164.277 8.02344 163.988 8.1875C163.699 8.34375 163.469 8.53906 163.297 8.77344C163.125 9 163.039 9.27344 163.039 9.59375V10.9297ZM190.461 5.14062C190.461 5.95312 190.434 6.80078 190.379 7.68359C190.324 8.55859 190.219 9.46094 190.062 10.3906H187.227C187.297 10.125 187.363 9.83594 187.426 9.52344C187.473 9.25781 187.516 8.94922 187.555 8.59766C187.602 8.23828 187.625 7.85938 187.625 7.46094C186.938 7.47656 186.367 7.54297 185.914 7.66016C185.469 7.76953 185.098 7.90234 184.801 8.05859C184.504 8.20703 184.262 8.35938 184.074 8.51562C183.887 8.67188 183.719 8.79688 183.57 8.89062V18.5H180.57V8.82031C180.539 8.57031 180.465 8.35938 180.348 8.1875C180.238 8.01562 180.121 7.875 179.996 7.76562C179.855 7.63281 179.695 7.52344 179.516 7.4375L180.758 5.14062C181.047 5.24219 181.332 5.37891 181.613 5.55078C181.855 5.69922 182.109 5.89062 182.375 6.125C182.648 6.35156 182.891 6.63281 183.102 6.96875C183.5 6.69531 183.867 6.46484 184.203 6.27734C184.539 6.08203 184.863 5.91797 185.176 5.78516C185.496 5.65234 185.824 5.55078 186.16 5.48047C186.504 5.40234 186.879 5.33984 187.285 5.29297C187.699 5.24609 188.16 5.21484 188.668 5.19922C189.184 5.17578 189.781 5.15625 190.461 5.14062Z" fill="white"/>
</svg>
